<?xml version="1.0" encoding="utf-8"?>
<svg version="1.1" id="logo_ELLIADD" xmlns="http://www.w3.org/2000/svg" xmlns:xlink="http://www.w3.org/1999/xlink" x="0px" y="0px"
	 viewBox="0 0 265.9 187.8" xml:space="preserve">
<g id="logo">
	<g id="description">
		<path d="M9.2,114.4H1.4v7.6h9.1l0,1H0.3l0-17.2h10.2v1H1.4v6.5h7.8V114.4z M5,104.5H4.4l1.7-2.2h1.7
			L5,104.5z"/>
		<path d="M26,122.3c-0.9,0.6-2.3,0.9-3.8,1c-3.4-0.1-6.1-2.9-6.1-6.5c0-3.5,2.8-6.3,6.1-6.3h0h0
			c1.5,0,2.8,0.3,3.8,1v-5.6h1.1v14.8c0,0,0,2.2,0.2,2.3H26V122.3z M22.3,111.5c-2.8,0.1-5.1,2.4-5.1,5.3c0,2.9,2.3,5.3,5.1,5.4h0
			c2.1-0.1,3.7-0.8,3.7-1.5v-7.9C25.8,112.1,24.3,111.5,22.3,111.5z"/>
		<path d="M33.9,106.2c0.4,0,0.7,0.3,0.7,0.7c0,0.3-0.4,0.7-0.7,0.7c-0.4,0-0.7-0.3-0.7-0.7
			C33.2,106.5,33.5,106.2,33.9,106.2z M33.4,110.6h1l0,12.5h-1L33.4,110.6z"/>
		<path d="M43.8,105.8v4.9h3.4v1.1h-3.4l0,11.2h-1c0,0,0-7.4,0-11.2h-1.9v-1.1h1.9v-4.9H43.8z"/>
		<path d="M53.6,106.2c0.4,0,0.7,0.3,0.7,0.7c0,0.3-0.4,0.7-0.7,0.7c-0.4,0-0.7-0.3-0.7-0.7
			C52.9,106.5,53.2,106.2,53.6,106.2z M53.1,110.6h1l0,12.5h-1L53.1,110.6z"/>
		<path d="M65.8,110.4c3.3,0,5.9,2.9,5.9,6.5c0,3.5-2.7,6.4-5.9,6.4c-3.3,0-6-2.9-6-6.4
			C59.8,113.3,62.5,110.4,65.8,110.4z M65.8,122.3c2.7,0,4.8-2.4,4.8-5.4c0-3-2.2-5.4-4.8-5.4c-2.7,0-4.9,2.4-4.9,5.4
			C60.9,119.8,63.1,122.3,65.8,122.3z"/>
		<path d="M77.7,111.7v0.7c0.8-1.2,2.1-2,3.5-2c2.4,0,4.2,2,4.3,4.6l0.1,8.1h-1.1l0-8.1
			c0-2-1.6-3.5-3.4-3.5c-1.7,0-3.2,1.3-3.4,3.1l0,8.5h-1.1l0-11.3c0-0.5-0.1-1-0.1-1h1.2V111.7z"/>
		<path d="M102.7,114c0.7,0,1.4,0.6,1.4,1.2c0,0.6-0.7,1.2-1.4,1.2c-0.7,0-1.4-0.6-1.4-1.2
			C101.3,114.6,101.9,114,102.7,114z"/>
		<path d="M120.8,122h8.6l0,1h-9.7l0-17.2h1.1V122z"/>
		<path d="M135.6,106.2c0.4,0,0.7,0.3,0.7,0.7c0,0.3-0.4,0.7-0.7,0.7c-0.4,0-0.7-0.3-0.7-0.7
			C134.8,106.5,135.2,106.2,135.6,106.2z M135,110.6h1l0,12.5h-1L135,110.6z"/>
		<path d="M145.4,105.8v4.9h3.4v1.1h-3.4l0,11.2h-1c0,0,0-7.4,0-11.2h-1.9v-1.1h1.9v-4.9H145.4z"/>
		<path d="M157.4,105.8v4.9h3.4v1.1h-3.4l0,11.2h-1c0,0,0-7.4,0-11.2h-1.9v-1.1h1.9v-4.9H157.4z"/>
		<path d="M174.5,121.3l0.4,0.9c-0.9,0.5-1.9,0.8-3.1,1h0c-0.2,0-0.4,0-0.7,0c-2.8,0-5.2-2.6-5.4-6
			v-0.5c0-3.5,2.3-6.4,5.1-6.4c2.8,0,5,2.8,5,6.3v0.6h-9c0.2,2.8,2,4.9,4.3,4.9C172.2,122.3,173.6,121.7,174.5,121.3z M174.9,116.3
			c-0.2-2.7-1.9-4.8-4-4.8c-2,0-3.8,2.1-4,4.8H174.9z M170.9,109.3h-0.6l1.7-2.2h1.7L170.9,109.3z"/>
		<path d="M186.1,111.5c-0.2,0-0.3,0-0.5,0c-1.7,0-3.1,1.3-3.4,3.1l0,8.4h-1.1l0-11.3
			c0-0.5,0-1.2-0.1-1.2h1.2v1.9c0.8-1.2,2.1-2,3.5-2c0.2,0,0.4,0,0.6,0.1L186.1,111.5z"/>
		<path d="M198.6,122.1c-0.8,0.8-1.9,1.2-3.1,1.2c-2.2,0-4.1-1.7-4.1-3.8c0-2.2,2-3.8,4.3-3.8h2.9v-0.6
			c0-2-1.1-3.7-2.7-3.7h0c-1.1,0-2.1,0.1-3,0.4l-0.3-1c1-0.3,2-0.4,3.2-0.4h0c2,0,3.6,1.9,3.8,4.3v0.3c0,0-0.1,2.1-0.1,4.2
			c0,1.9,0.1,3.8,0.2,3.9h-1.2L198.6,122.1z M198.6,116.8h-2.9c-1.8,0-3.2,1.1-3.2,2.8c0,1.5,1.3,2.7,3,2.7c1.7,0,3.1-1.2,3.1-2.7
			V116.8z"/>
		<path d="M208.2,105.8v4.9h3.4v1.1h-3.4l0,11.2h-1c0,0,0-7.4,0-11.2h-1.9v-1.1h1.9v-4.9H208.2z"/>
		<path d="M225,121.9v-0.6c-0.8,1.1-2.1,2-3.5,2c-2.4,0-4.2-2-4.3-4.6l-0.1-0.1v-7.9h1v7.9l0,0.1
			c0.1,1.9,1.6,3.5,3.4,3.5c1.7,0,3.1-1.4,3.3-3.1v-8.5h1.1v11.3c0,0.6,0.1,1.2,0.1,1.2H225L225,121.9z"/>
		<path d="M236.8,111.5c-0.2,0-0.3,0-0.5,0c-1.7,0-3.1,1.3-3.4,3.1l0,8.4h-1.1l0-11.3
			c0-0.5,0-1.2-0.1-1.2h1.2v1.9c0.8-1.2,2.1-2,3.5-2c0.2,0,0.4,0,0.6,0.1L236.8,111.5z"/>
		<path d="M250.5,121.3l0.4,0.9c-0.9,0.5-1.9,0.8-3.1,1h0c-0.2,0-0.4,0-0.7,0c-2.8,0-5.2-2.6-5.4-6
			v-0.5c0-3.5,2.3-6.4,5.1-6.4c2.8,0,5,2.8,5,6.3v0.6h-9c0.1,2.8,2,4.9,4.3,4.9C248.3,122.3,249.6,121.7,250.5,121.3z M250.9,116.3
			c-0.2-2.7-1.9-4.8-4-4.8c-2,0-3.7,2.1-4,4.8H250.9z"/>
		<path d="M264.6,112.6c-0.8-0.7-2-1.1-3.2-1.1c-1.7,0-3.1,0.9-3.1,2.1c0,1.2,1.3,2.3,3.2,2.6
			c2.3,0.3,4,1.9,4,3.7c0,2-1.9,3.3-4.2,3.3c-1.6,0-3.2-0.6-4.1-1.6l0.8-0.6c0.7,0.7,1.9,1.2,3.2,1.2c1.8,0,3.2-0.9,3.2-2.3
			c0-1.2-1.3-2.4-3.1-2.7c-2.3-0.3-4.1-1.9-4.1-3.6c0-1.9,2-3.1,4.3-3.1c1.6,0,3.1,0.6,4,1.5L264.6,112.6z"/>
		<path d="M1.4,151.9H10l0,1H0.3l0-17.2h1.1V151.9z"/>
		<path d="M21,152c-0.8,0.8-1.9,1.2-3.1,1.2c-2.2,0-4.1-1.7-4.1-3.8c0-2.2,2-3.8,4.3-3.8H21v-0.6
			c0-2-1.1-3.7-2.7-3.7h0c-1.1,0-2.1,0.1-3,0.4l-0.2-1c1-0.3,2-0.4,3.2-0.4h0c2,0,3.6,1.9,3.8,4.3v0.3c0,0,0,2.1,0,4.2
			c0,1.9,0,3.8,0.2,3.9h-1.2L21,152z M21,146.7h-2.9c-1.8,0-3.2,1.1-3.2,2.8c0,1.5,1.3,2.7,3,2.7c1.7,0,3.1-1.2,3.1-2.7V146.7z"/>
		<path d="M27.3,141.6v0.7c0.8-1.2,2.1-2,3.5-2c2.4,0,4.2,2,4.3,4.6l0.1,8.1h-1.1l0-8.1
			c0-2-1.6-3.5-3.4-3.5c-1.7,0-3.2,1.4-3.4,3.2l0,8.5h-1.1l0-11.3c0-0.5-0.1-1-0.1-1h1.2V141.6z"/>
		<path d="M44.3,150c2.9,0,5.1,1.7,5.1,3.9c0,2.2-2.3,4-5.1,4c-2.8,0-5.1-1.8-5.1-4
			c0-1.5,1.1-2.8,2.7-3.4c-0.2-0.3-0.3-0.7-0.3-1.2c0-0.6,0.2-1.1,0.5-1.3c-1.2-0.8-1.9-2-1.9-3.3c0-2.4,2.2-4.3,5.1-4.3
			c0.7,0,1.3,0.1,1.9,0.3h4.4l-1,1H49c0.9,0.8,1.4,1.8,1.4,3c0,2.4-2.3,4.3-5.1,4.3c-0.8,0-1.5-0.3-2.1-0.3c-0.4,0-0.8,0.1-0.8,0.7
			c0,0.7,0.5,0.8,0.9,0.8c0.2,0,0.4,0,0.5,0C43.9,150,44.1,150,44.3,150z M44.3,157c2.3,0,4.1-1.4,4.1-3c0-1.6-1.8-3-4.1-3
			c-2.2,0-4.1,1.4-4.1,3C40.2,155.6,42.1,157,44.3,157z M45.3,148c2.3,0,4.1-1.5,4.1-3.3c0-1.9-1.8-3.3-4.1-3.3c-2.2,0-4,1.5-4,3.3
			C41.3,146.5,43.1,148,45.3,148z"/>
		<path d="M62.7,152c-0.8,0.8-1.9,1.2-3.1,1.2c-2.2,0-4.1-1.7-4.1-3.8c0-2.2,2-3.8,4.3-3.8h2.9v-0.6
			c0-2-1.1-3.7-2.7-3.7h0c-1.1,0-2.1,0.1-3,0.4l-0.3-1c1-0.3,2-0.4,3.2-0.4h0c2,0,3.6,1.9,3.8,4.3v0.3c0,0-0.1,2.1-0.1,4.2
			c0,1.9,0.1,3.8,0.2,3.9h-1.2L62.7,152z M62.7,146.7h-2.9c-1.8,0-3.2,1.1-3.2,2.8c0,1.5,1.3,2.7,3,2.7c1.7,0,3.1-1.2,3.1-2.7V146.7
			z"/>
		<path d="M72.9,150c2.9,0,5.1,1.7,5.1,3.9c0,2.2-2.3,4-5.1,4c-2.8,0-5.1-1.8-5.1-4
			c0-1.5,1.1-2.8,2.7-3.4c-0.2-0.3-0.3-0.7-0.3-1.2c0-0.6,0.2-1.1,0.5-1.3c-1.2-0.8-1.9-2-1.9-3.3c0-2.4,2.2-4.3,5.1-4.3
			c0.7,0,1.3,0.1,1.9,0.3h4.4l-1,1h-1.6c0.9,0.8,1.4,1.8,1.4,3c0,2.4-2.3,4.3-5.1,4.3c-0.8,0-1.5-0.3-2.1-0.3
			c-0.4,0-0.8,0.1-0.8,0.7c0,0.7,0.5,0.8,0.9,0.8c0.2,0,0.4,0,0.5,0C72.5,150,72.7,150,72.9,150z M72.9,157c2.3,0,4.1-1.4,4.1-3
			c0-1.6-1.8-3-4.1-3c-2.2,0-4.1,1.4-4.1,3C68.8,155.6,70.7,157,72.9,157z M73.9,148c2.3,0,4.1-1.5,4.1-3.3c0-1.9-1.8-3.3-4.1-3.3
			c-2.2,0-4,1.5-4,3.3C69.8,146.5,71.7,148,73.9,148z"/>
		<path d="M92.5,151.3l0.4,0.9c-0.9,0.5-1.9,0.8-3.1,1h0c-0.2,0-0.4,0-0.7,0c-2.8,0-5.2-2.6-5.4-6v-0.5
			c0-3.5,2.3-6.4,5.1-6.4c2.8,0,5,2.7,5,6.3v0.6h-9c0.1,2.8,2,4.9,4.3,4.9C90.2,152.2,91.6,151.7,92.5,151.3z M92.9,146.2
			c-0.2-2.7-1.9-4.8-4-4.8c-2,0-3.8,2.1-4,4.8H92.9z"/>
		<path d="M108.3,143.9c0.7,0,1.4,0.6,1.4,1.2c0,0.6-0.7,1.2-1.4,1.2c-0.7,0-1.4-0.6-1.4-1.2
			C106.9,144.5,107.6,143.9,108.3,143.9z"/>
		<path d="M124.1,153h-1.1l0-17.2h1.1L124.1,153z"/>
		<path d="M129.5,141.6v0.7c0.8-1.2,2.1-2,3.5-2c2.4,0,4.2,2,4.3,4.6l0.1,8.1h-1.1l0-8.1
			c0-2-1.6-3.5-3.4-3.5c-1.7,0-3.2,1.4-3.4,3.2l0,8.5h-1.1l0-11.3c0-0.5-0.1-1-0.1-1h1.2V141.6z"/>
		<path d="M148,136.7c-0.2,0-0.6,0-0.9,0c-1.5,0-2.7,1.6-2.7,3.5v0.7h3.4v1.1h-3.4l0,11.1h-1
			c0,0,0-7.4,0-11.1h-1.9v-1.1h1.9c0,0,0-0.1,0-0.2c0-0.2,0-0.5,0-0.5v-0.3c0.1-2.3,1.7-4.2,3.7-4.2c0.4,0,0.8,0,1.2,0.1L148,136.7z
			"/>
		<path d="M157.5,140.4c3.3,0,5.9,2.9,5.9,6.5c0,3.5-2.7,6.4-5.9,6.4c-3.3,0-6-2.9-6-6.4
			C151.5,143.3,154.2,140.4,157.5,140.4z M157.5,152.2c2.7,0,4.8-2.4,4.8-5.4c0-3-2.2-5.4-4.8-5.4c-2.7,0-4.9,2.4-4.9,5.4
			C152.6,149.8,154.8,152.2,157.5,152.2z"/>
		<path d="M172.2,141.5c-0.2-0.1-0.3-0.1-0.5-0.1c-1.7,0-3.1,1.3-3.4,3.1l0,8.4h-1.1l0-11.3
			c0-0.5,0-1.2-0.1-1.2h1.2v1.8c0.8-1.2,2.1-2,3.5-2c0.2,0,0.4,0,0.6,0.1L172.2,141.5z"/>
		<path d="M177.4,141.7v0.6c0.8-1.2,2.1-1.9,3.5-1.9c1.8,0,3.3,1.2,4,2.8c0.7-2,2.4-2.8,3.9-2.8
			c2.4,0,4.2,2,4.3,4.5l0.1,8.1h-1.1v-8.1c0-1.9-1.6-3.5-3.4-3.5c-1.7,0-3.2,1.4-3.4,3.1v8.4h-1.1v-8c-0.1-2-1.6-3.5-3.4-3.5
			c-1.7,0-3.1,1.3-3.4,3.1l0,8.4h-1.1l0-11.3c0-0.6-0.1-1.2-0.1-1.2h1.2V141.7z"/>
		<path d="M204.4,152c-0.8,0.8-1.9,1.2-3.1,1.2c-2.2,0-4.1-1.7-4.1-3.8c0-2.2,2-3.8,4.3-3.8h2.9v-0.6
			c0-2-1.1-3.7-2.7-3.7h0c-1.1,0-2.1,0.1-3,0.4l-0.3-1c1-0.3,2-0.4,3.2-0.4h0c2,0,3.6,1.9,3.8,4.3v0.3c0,0,0,2.1,0,4.2
			c0,1.9,0,3.8,0.2,3.9h-1.2L204.4,152z M204.4,146.7h-2.9c-1.8,0-3.2,1.1-3.2,2.8c0,1.5,1.3,2.7,3,2.7c1.7,0,3.1-1.2,3.1-2.7V146.7
			z"/>
		<path d="M212.9,135.8v4.9h3.4v1.1h-3.4l0,11.2h-1c0,0,0-7.4,0-11.2h-1.9v-1.1h1.9v-4.9H212.9z"/>
		<path d="M221.6,136.1c0.4,0,0.7,0.3,0.7,0.7c0,0.4-0.4,0.7-0.7,0.7c-0.4,0-0.7-0.3-0.7-0.7
			C220.8,136.4,221.2,136.1,221.6,136.1z M221,140.5h1.1l0,12.5h-1L221,140.5z"/>
		<path d="M236.6,140.7h1v17.2h-1v-6.1c-0.9,0.6-2.2,1-3.7,1h0.1h-0.1c-3.2-0.1-5.9-2.8-5.9-6.2
			c0-3.4,2.7-6.2,5.9-6.2c1.5,0,2.9,0.3,3.7,0.9V140.7z M236.6,142.8c0-0.8-1.7-1.5-3.6-1.5h-0.1c-2.7,0-4.9,2.3-4.9,5.2
			c0,2.9,2.2,5.1,4.9,5.2c2,0,3.5-0.6,3.7-1.3V142.8z"/>
		<path d="M250.2,151.8v-0.6c-0.8,1.1-2.1,2-3.5,2c-2.4,0-4.2-2-4.3-4.6l-0.1-0.1v-7.9h1v7.9l0,0.1
			c0,1.9,1.6,3.5,3.4,3.5c1.7,0,3.1-1.4,3.3-3.1v-8.5h1.1v11.3c0,0.6,0.1,1.1,0.2,1.2h-1.2L250.2,151.8z"/>
		<path d="M264.1,151.3l0.4,0.9c-0.9,0.5-1.9,0.8-3.1,1h0c-0.2,0-0.4,0-0.7,0c-2.8,0-5.2-2.6-5.4-6
			v-0.5c0-3.5,2.3-6.4,5.1-6.4c2.8,0,5,2.7,5,6.3v0.6h-9c0.1,2.8,2,4.9,4.3,4.9C261.9,152.2,263.3,151.7,264.1,151.3z M264.5,146.2
			c-0.2-2.7-1.9-4.8-4-4.8c-2,0-3.8,2.1-4,4.8H264.5z"/>
		<path d="M6.5,165.7h0.9l6.5,17.2h-1.1l-2.8-7.2H3.8l-2.7,7.2H0L6.5,165.7z M9.6,174.7l-2.7-7.2
			l-2.7,7.2H9.6z"/>
		<path d="M20.5,171.4c-0.2-0.1-0.3-0.1-0.5-0.1c-1.7,0-3.1,1.3-3.4,3.2l0,8.4h-1.1l0-11.3
			c0-0.5,0-1.2-0.1-1.2h1.2v1.8c0.8-1.3,2.1-2,3.5-2c0.2,0,0.4,0,0.6,0.1L20.5,171.4z"/>
		<path d="M25.7,165.7v4.9h3.4v1.1h-3.4l0,11.2h-1c0,0,0-7.4,0-11.2h-1.9v-1.1h1.9v-4.9H25.7z"/>
		<path d="M38.8,172.5c-0.8-0.7-2-1.1-3.2-1.1c-1.7,0-3.1,0.9-3.1,2.1c0,1.2,1.3,2.4,3.2,2.6
			c2.3,0.3,4,1.9,4,3.7c0,2-1.9,3.3-4.2,3.3c-1.6,0-3.2-0.6-4.1-1.6l0.8-0.6c0.7,0.7,1.9,1.2,3.2,1.2c1.8,0,3.2-0.9,3.2-2.3
			c0-1.2-1.3-2.4-3.1-2.7c-2.3-0.3-4.1-1.9-4.1-3.6c0-1.9,2-3.1,4.3-3.1c1.6,0,3.1,0.6,4,1.5L38.8,172.5z"/>
		<path d="M50.2,173.8c0.7,0,1.4,0.6,1.4,1.3c0,0.6-0.7,1.2-1.4,1.2c-0.7,0-1.4-0.6-1.4-1.2
			C48.8,174.5,49.5,173.8,50.2,173.8z"/>
		<path d="M60.5,165.7h1.1H67c3.4,0,6.2,3.9,6.2,8.6c0,4.7-2.7,8.5-6.1,8.6l0,0h-6.6L60.5,165.7z
			 M61.5,166.7v15.1H67v0c2.8-0.1,5-3.4,5-7.6c0-4.1-2.2-7.5-5.1-7.5H61.5z"/>
		<path d="M76.4,166c0.4,0,0.7,0.3,0.7,0.7c0,0.3-0.4,0.7-0.7,0.7c-0.4,0-0.7-0.3-0.7-0.7
			C75.6,166.4,75.9,166,76.4,166z M75.8,170.5h1l0,12.5h-1L75.8,170.5z"/>
		<path d="M89.9,182.1c-0.9,0.6-2.2,0.9-3.8,1c-3.4-0.1-6.1-2.9-6.1-6.5c0-3.5,2.8-6.3,6.1-6.3h0.1
			h-0.1c1.5,0,2.8,0.3,3.8,1v-5.6h1.1v14.8c0,0,0,2.2,0.2,2.3h-1.2V182.1z M86.1,171.3c-2.8,0.1-5.1,2.4-5.1,5.3
			c0,2.9,2.2,5.3,5.1,5.4h0.1c2.1-0.1,3.7-0.8,3.7-1.5v-7.9C89.6,171.9,88.1,171.3,86.1,171.3z"/>
		<path d="M100.5,181.9c-0.8,0.8-1.9,1.2-3.1,1.2c-2.2,0-4.1-1.7-4.1-3.8c0-2.2,2-3.8,4.3-3.8h2.9v-0.5
			c0-2-1.1-3.7-2.7-3.7h0c-1.1,0-2.1,0.1-3,0.4l-0.3-1c1-0.3,2-0.4,3.2-0.4h0c2,0,3.6,1.9,3.8,4.3v0.2c0,0,0,2.1,0,4.2
			c0,1.9,0,3.8,0.2,3.9h-1.2L100.5,181.9z M100.5,176.6h-2.9c-1.8,0-3.2,1.1-3.2,2.8c0,1.5,1.3,2.7,3,2.7c1.7,0,3.1-1.2,3.1-2.7
			V176.6z"/>
		<path d="M112.9,173c-0.9-1-2.2-1.7-3.6-1.7c-2.8,0-5,2.4-5,5.4c0,2.9,2.3,5.4,5,5.4
			c1.4,0,2.7-0.6,3.6-1.6l0.8,0.7c-1.1,1.2-2.7,1.9-4.3,1.9c-3.3,0-6.1-2.9-6.1-6.4c0-3.5,2.8-6.4,6.1-6.4c1.8,0,3.3,0.8,4.4,1.9
			L112.9,173z"/>
		<path d="M119,165.7v4.9h3.4v1.1H119l0,11.2h-1c0,0,0-7.4,0-11.2h-1.9v-1.1h1.9v-4.9H119z"/>
		<path d="M125.6,166c0.4,0,0.7,0.3,0.7,0.7c0,0.3-0.4,0.7-0.7,0.7c-0.4,0-0.7-0.3-0.7-0.7
			C124.9,166.4,125.2,166,125.6,166z M125.1,170.5h1l0,12.5h-1L125.1,170.5z"/>
		<path d="M138.5,170.6h1v17.2h-1v-6.1c-0.9,0.6-2.2,1-3.7,1h0.1h-0.1c-3.2-0.1-5.9-2.8-5.9-6.2
			c0-3.4,2.7-6.2,5.9-6.2c1.5,0,2.9,0.3,3.7,0.9V170.6z M138.5,172.7c0-0.8-1.7-1.4-3.6-1.4h-0.1c-2.7,0-4.9,2.3-4.9,5.2
			s2.2,5.1,4.9,5.2c2,0,3.5-0.6,3.7-1.3V172.7z"/>
		<path d="M150,181.8v-0.6c-0.8,1.1-2.1,2-3.5,2c-2.4,0-4.2-2-4.3-4.6l-0.1-0.1v-7.9h1v7.9l0,0.1
			c0,1.9,1.6,3.5,3.4,3.5c1.7,0,3.1-1.4,3.3-3.1v-8.5h1.1v11.3c0,0.6,0.1,1.1,0.2,1.2h-1.2L150,181.8z"/>
		<path d="M161.8,181.2l0.4,0.9c-0.9,0.5-1.9,0.8-3.1,1h0c-0.2,0-0.4,0-0.7,0c-2.8,0-5.2-2.6-5.4-6
			v-0.5c0-3.5,2.3-6.4,5.1-6.4c2.8,0,5,2.7,5,6.3v0.6h-9c0.1,2.8,2,4.9,4.3,4.9C159.6,182.1,161,181.6,161.8,181.2z M162.2,176.2
			c-0.2-2.7-1.9-4.8-4-4.8c-2,0-3.8,2.1-4,4.8H162.2z"/>
		<path d="M173.5,173.8c0.7,0,1.4,0.6,1.4,1.3c0,0.6-0.7,1.2-1.4,1.2c-0.7,0-1.4-0.6-1.4-1.2
			C172.1,174.5,172.8,173.8,173.5,173.8z"/>
		<path d="M183.8,165.7h1.1h5.4c3.4,0,6.2,3.9,6.2,8.6c0,4.7-2.7,8.5-6.1,8.6l0,0h-6.6L183.8,165.7z
			 M184.8,166.7v15.1h5.5v0c2.8-0.1,5-3.4,5-7.6c0-4.1-2.2-7.5-5.1-7.5H184.8z"/>
		<path d="M199.7,166c0.4,0,0.7,0.3,0.7,0.7c0,0.3-0.4,0.7-0.7,0.7c-0.4,0-0.7-0.3-0.7-0.7
			C198.9,166.4,199.3,166,199.7,166z M199.1,170.5h1.1l0,12.5h-1.1L199.1,170.5z"/>
		<path d="M210.6,172.5c-0.8-0.7-2-1.1-3.2-1.1c-1.7,0-3.1,0.9-3.1,2.1c0,1.2,1.3,2.4,3.2,2.6
			c2.3,0.3,4,1.9,4,3.7c0,2-1.9,3.3-4.2,3.3c-1.6,0-3.2-0.6-4.1-1.6l0.8-0.6c0.7,0.7,1.9,1.2,3.2,1.2c1.8,0,3.2-0.9,3.2-2.3
			c0-1.2-1.3-2.4-3.1-2.7c-2.3-0.3-4.1-1.9-4.1-3.6c0-1.9,2-3.1,4.3-3.1c1.6,0,3.1,0.6,4,1.5L210.6,172.5z"/>
		<path d="M222.9,173c-0.9-1-2.2-1.7-3.6-1.7c-2.8,0-5,2.4-5,5.4c0,2.9,2.2,5.4,5,5.4
			c1.4,0,2.7-0.6,3.6-1.6l0.8,0.7c-1.2,1.2-2.7,1.9-4.3,1.9c-3.3,0-6.1-2.9-6.1-6.4c0-3.5,2.8-6.4,6.1-6.4c1.8,0,3.3,0.8,4.4,1.9
			L222.9,173z"/>
		<path d="M231.3,170.3c3.3,0,5.9,2.9,5.9,6.5c0,3.5-2.7,6.4-5.9,6.4c-3.3,0-6-2.9-6-6.4
			C225.3,173.2,228,170.3,231.3,170.3z M231.3,182.1c2.7,0,4.8-2.4,4.8-5.4c0-3-2.2-5.4-4.8-5.4c-2.7,0-4.9,2.4-4.9,5.4
			C226.4,179.7,228.6,182.1,231.3,182.1z"/>
		<path d="M246.9,181.8v-0.6c-0.8,1.1-2.1,2-3.5,2c-2.4,0-4.2-2-4.3-4.6l-0.1-0.1v-7.9h1v7.9l0.1,0.1
			c0,1.9,1.6,3.5,3.4,3.5c1.7,0,3.1-1.4,3.3-3.1v-8.5h1.1v11.3c0,0.6,0.1,1.1,0.1,1.2h-1.2L246.9,181.8z"/>
		<path d="M255.4,171.4c-0.2-0.1-0.3-0.1-0.5-0.1c-1.7,0-3.1,1.3-3.4,3.2l0,8.4h-1.1l0-11.3
			c0-0.5,0-1.2-0.1-1.2h1.2v1.8c0.8-1.3,2.1-2,3.5-2c0.2,0,0.4,0,0.6,0.1L255.4,171.4z"/>
		<path d="M265,172.5c-0.8-0.7-2-1.1-3.2-1.1c-1.7,0-3.1,0.9-3.1,2.1c0,1.2,1.3,2.4,3.2,2.6
			c2.3,0.3,4,1.9,4,3.7c0,2-1.9,3.3-4.2,3.3c-1.6,0-3.2-0.6-4.1-1.6l0.8-0.6c0.7,0.7,1.9,1.2,3.2,1.2c1.8,0,3.2-0.9,3.2-2.3
			c0-1.2-1.3-2.4-3.1-2.7c-2.3-0.3-4.1-1.9-4.1-3.6c0-1.9,2-3.1,4.3-3.1c1.6,0,3.1,0.6,4,1.5L265,172.5z"/>
	</g>
	<g id="ELLIADD">
		<g>
			<path d="M7,6.9v34.3h16.4v7H7v34.3h23.3v6.9H0V0h29.3v6.9H7z"/>
			<path d="M69.1,82.5v6.9H40V0h7v82.5H69.1z"/>
			<path d="M107.4,82.5v6.9H78.3V0h7v82.5H107.4z"/>
			<path d="M116.6,89.4V0h7v89.4H116.6z"/>
			<path d="M172,89.4h-7l-3.7-22.9h-18.6l-3.5,22.9h-7l14-89.4h11.9L172,89.4z M143.8,59.6h16.4l-8-51.9H152L143.8,59.6z"
				/>
			<path d="M215.8,70.8c0,10.2-8.5,18.5-19,18.5h-16.2V0h16.2c10.4,0,19,8.3,19,18.5V70.8z M208.7,18.5
				c0-6.5-5.3-11.7-11.9-11.7h-9.2v75.6h9.2c6.6,0,11.9-5.2,11.9-11.6V18.5z"/>
			<path d="M263.6,70.8c0,10.2-8.5,18.5-19,18.5h-16.3V0h16.3c10.4,0,19,8.3,19,18.5V70.8z M256.6,18.5
				c0-6.5-5.3-11.7-11.9-11.7h-9.2v75.6h9.2c6.6,0,11.9-5.2,11.9-11.6V18.5z"/>
		</g>
	</g>
</g>
</svg>
